<?xml version="1.0" standalone="no"?>
<!DOCTYPE svg PUBLIC "-//W3C//DTD SVG 20010904//EN"
 "http://www.w3.org/TR/2001/REC-SVG-20010904/DTD/svg10.dtd">
<svg version="1.0" xmlns="http://www.w3.org/2000/svg"
 width="260.000000pt" height="260.000000pt" viewBox="0 0 260.000000 260.000000"
 preserveAspectRatio="xMidYMid meet">
<metadata>
Created by potrace 1.14, written by Peter Selinger 2001-2017
</metadata>
<g transform="translate(0.000000,260.000000) scale(0.100000,-0.100000)"
fill="#000000" stroke="none">
<path d="M1080 2478 c-301 -58 -491 -155 -680 -348 -84 -85 -102 -107 -153
-188 -85 -133 -157 -317 -173 -444 -3 -24 -7 -54 -10 -68 -6 -37 -6 -218 1
-270 9 -73 25 -140 52 -227 l26 -82 -31 -36 c-38 -42 -40 -61 -10 -71 16 -5
27 0 44 20 l23 26 32 -58 c18 -31 35 -59 38 -62 3 -3 12 -16 20 -30 30 -53
122 -159 192 -222 85 -74 165 -129 261 -178 l66 -34 -29 -13 c-32 -13 -40 -47
-14 -57 18 -6 114 12 130 25 6 4 44 0 85 -11 105 -27 169 -35 290 -35 213 0
351 31 529 119 125 61 281 175 281 204 0 5 -7 15 -15 22 -13 11 -20 10 -43 -8
-15 -12 -67 -49 -115 -82 -76 -52 -120 -76 -222 -120 -29 -13 -145 -50 -153
-49 -4 1 -9 0 -12 -1 -45 -17 -339 -34 -364 -21 -12 5 -51 11 -83 11 -34 0
-28 9 21 30 50 21 59 31 50 55 -5 13 -15 16 -39 12 -51 -8 -110 -41 -109 -60
2 -22 -1 -22 -88 9 -92 33 -195 84 -273 137 -70 47 -219 190 -255 245 -14 20
-27 39 -30 42 -25 23 -97 159 -127 239 -48 127 -64 218 -68 371 -4 159 8 251
51 380 26 81 80 197 101 218 7 7 13 18 13 23 0 17 62 97 139 179 71 78 169
157 241 196 19 10 37 22 40 25 20 21 246 104 310 112 19 3 35 6 35 7 0 6 98
12 200 13 419 3 807 -238 995 -617 l50 -100 -25 -30 c-46 -59 -85 -136 -106
-213 -25 -91 -55 -135 -111 -164 -62 -32 -68 -24 -83 106 -10 85 -24 135 -59
209 -19 39 -43 92 -54 118 -23 53 -52 72 -134 89 -29 6 -115 40 -192 77 -161
76 -208 84 -270 41 -90 -61 -66 -142 66 -213 75 -41 129 -54 196 -50 78 6 93
-8 85 -73 -15 -127 -87 -199 -216 -218 l-48 -7 -63 67 c-34 37 -85 79 -112 94
-44 24 -51 34 -70 87 -27 75 -89 145 -158 179 -76 37 -117 38 -211 4 -100 -37
-185 -48 -203 -26 -37 45 -12 116 51 146 23 11 62 25 87 31 54 14 75 28 94 65
17 32 13 110 -8 170 -14 41 -31 52 -54 36 -11 -7 -11 -21 1 -80 22 -106 19
-112 -93 -147 -71 -22 -114 -51 -135 -90 -23 -44 -28 -109 -10 -145 39 -75
121 -79 303 -15 67 24 76 25 113 12 89 -31 143 -90 175 -192 15 -50 20 -55 80
-84 34 -18 69 -41 78 -53 21 -32 67 -80 96 -100 50 -35 190 -7 263 54 51 42
98 142 102 216 4 106 -20 135 -114 133 -102 -2 -115 0 -177 30 -73 36 -114 66
-114 85 0 22 48 48 85 47 19 -1 78 -24 132 -51 122 -62 163 -78 208 -85 54 -9
102 -32 115 -55 6 -12 9 -21 6 -21 -3 0 15 -42 39 -92 24 -51 46 -111 49 -133
3 -22 8 -62 11 -90 9 -73 23 -122 41 -140 49 -48 190 21 240 117 14 27 36 92
47 143 7 29 63 125 73 125 11 0 28 -53 40 -125 3 -21 8 -47 10 -59 7 -32 6
-215 -1 -271 -7 -54 -11 -59 -104 -112 l-56 -31 -145 89 c-80 49 -160 94 -178
100 -69 23 -175 -10 -187 -58 -6 -25 3 -73 14 -73 3 0 20 -12 36 -26 17 -14
46 -38 65 -53 19 -14 42 -33 51 -41 9 -8 33 -28 53 -43 20 -15 36 -31 36 -35
0 -5 -19 -18 -42 -30 -24 -11 -74 -39 -112 -60 l-70 -39 -34 24 c-39 26 -59
28 -99 11 -55 -25 -79 -58 -74 -106 0 -6 28 -38 61 -70 34 -33 62 -68 63 -80
1 -12 4 -22 8 -22 4 0 6 -6 6 -12 -3 -32 16 -98 32 -112 19 -18 81 -30 81 -16
0 4 14 13 31 20 42 18 62 51 56 93 -2 19 -2 39 2 44 6 9 218 133 227 133 2 0
3 -3 2 -7 -2 -8 11 -132 17 -163 2 -8 6 -37 9 -65 11 -87 17 -103 41 -119 33
-21 51 -20 88 6 38 27 51 42 73 88 15 30 17 63 16 217 l-2 182 113 64 c152 86
183 135 141 223 -20 42 -62 66 -118 66 l-42 0 6 51 c27 246 -47 531 -196 757
-59 91 -273 310 -302 310 -5 0 -18 9 -30 20 -12 12 -66 43 -119 70 -177 89
-313 121 -518 125 -77 1 -160 -2 -185 -7z m783 -1325 c7 -4 15 -8 18 -8 3 0
75 -43 159 -95 84 -52 158 -95 164 -95 6 0 64 31 128 68 65 37 129 67 142 67
28 0 66 -35 66 -60 0 -38 -22 -55 -200 -153 -59 -32 -76 -53 -74 -89 2 -18 4
-103 4 -189 1 -142 -1 -159 -20 -191 -21 -36 -44 -53 -60 -43 -5 3 -12 36 -15
73 -4 37 -9 76 -11 87 -2 11 -6 43 -9 70 -3 28 -8 59 -10 70 -2 11 -4 30 -4
42 -2 45 -35 37 -178 -43 -179 -100 -176 -97 -170 -157 3 -40 0 -51 -17 -63
-36 -25 -44 -17 -62 64 -16 73 -20 80 -78 135 l-60 59 24 19 c33 25 36 24 81
-12 l40 -31 112 63 c62 35 133 75 159 89 60 32 63 56 11 96 -21 16 -47 36 -58
45 -11 10 -51 42 -90 73 -38 31 -78 63 -88 73 -17 16 -17 17 3 28 25 13 77 18
93 8z"/>
<path d="M443 1600 c-148 -52 -259 -189 -270 -335 -7 -75 8 -125 49 -165 28
-28 128 -87 128 -76 0 3 18 -1 40 -9 22 -8 43 -14 46 -14 18 3 65 -27 84 -53
17 -23 23 -44 22 -77 -5 -237 -3 -251 50 -352 45 -89 63 -108 111 -119 90 -20
189 81 252 256 20 55 38 106 42 114 3 8 7 22 9 30 10 48 57 131 87 154 19 14
38 26 44 26 19 0 101 86 122 128 25 50 29 109 10 140 -20 32 -69 44 -167 40
l-87 -3 -2 45 c-3 63 -10 91 -31 120 -28 37 -81 62 -142 67 -37 4 -66 13 -88
30 -87 65 -213 87 -309 53z m199 -63 c18 -8 56 -30 85 -49 39 -27 59 -35 84
-32 46 6 95 -12 119 -43 15 -19 20 -41 20 -83 0 -43 5 -64 21 -84 20 -25 23
-26 106 -20 47 3 99 2 115 -2 29 -6 30 -8 25 -45 -7 -53 -46 -101 -115 -145
-92 -58 -111 -86 -163 -239 -13 -38 -24 -72 -24 -75 -2 -7 -15 -42 -25 -65
-33 -79 -50 -106 -92 -148 -74 -74 -104 -63 -165 62 -26 53 -28 63 -29 206 0
122 -4 157 -18 187 -23 49 -89 91 -172 112 -82 21 -116 38 -153 77 -26 27 -28
35 -26 98 3 84 27 139 87 200 96 97 219 131 320 88z"/>
<path d="M1235 893 c-34 -9 -106 -64 -126 -96 -10 -18 -19 -44 -19 -58 0 -14
-9 -35 -19 -46 -11 -11 -25 -39 -31 -62 -28 -105 86 -154 165 -71 18 18 41 63
56 108 15 42 33 95 42 116 10 27 12 49 6 70 -12 42 -28 50 -74 39z m-4 -126
c-11 -23 -28 -68 -37 -100 -17 -58 -42 -87 -75 -87 -28 0 -28 32 -1 69 14 18
29 52 34 74 11 48 22 63 63 89 38 23 43 9 16 -45z"/>
<path d="M25 656 c-11 -8 -18 -32 -22 -73 -5 -53 -3 -62 14 -71 31 -17 41 -1
48 74 6 58 4 72 -8 77 -8 3 -23 0 -32 -7z"/>
<path d="M1500 523 c-68 -45 -89 -64 -84 -77 11 -29 38 -26 91 9 54 36 69 67
37 79 -20 8 -16 9 -44 -11z"/>
<path d="M45 400 c-8 -25 17 -71 57 -105 29 -25 33 -26 44 -10 15 20 10 35
-31 92 -32 46 -60 55 -70 23z"/>
<path d="M1265 384 c-66 -34 -80 -52 -59 -75 16 -17 19 -17 74 11 63 32 77 51
54 75 -9 8 -16 15 -17 15 -1 -1 -24 -12 -52 -26z"/>
<path d="M232 238 c-23 -23 -12 -39 41 -63 63 -30 83 -31 96 -6 13 23 4 31
-59 56 -25 9 -50 19 -55 21 -6 3 -16 -1 -23 -8z"/>
<path d="M467 166 c-11 -28 16 -45 76 -49 68 -5 94 11 77 44 -9 16 -22 19 -79
19 -50 0 -70 -4 -74 -14z"/>
</g>
</svg>
